<?xml version="1.0" encoding="UTF-8"?>
<svg width="46px" height="29px" viewBox="0 0 46 29" version="1.1" xmlns="http://www.w3.org/2000/svg" xmlns:xlink="http://www.w3.org/1999/xlink">
    <title>care</title>
    <g id="Page-1" stroke="none" stroke-width="1" fill="none" fill-rule="evenodd">
        <g id="Artboard" transform="translate(-111.000000, -259.000000)" fill="#000000" fill-rule="nonzero">
            <g id="care" transform="translate(111.000000, 259.000000)">
                <path d="M26.1782784,5.28974646 C26.4316033,5.28829944 26.6837976,5.32393502 26.9269894,5.3955409 C27.0945177,5.44489104 27.256394,5.51201695 27.409908,5.59579466 L27.409908,5.14994666 C27.4028496,4.80987245 27.4639703,4.47186699 27.5895987,4.15623461 C27.7193942,3.8413957 27.9088718,3.55517758 28.1473884,3.31365747 C28.3863548,3.07440185 28.6701478,2.88558765 28.9822012,2.75823666 C29.2878185,2.62754794 29.6161259,2.55947768 29.9480384,2.5579829 L29.9480384,2.5579829 C30.2022086,2.5601067 30.4546114,2.60086675 30.6967495,2.67889083 C30.8740921,2.73562269 31.0448018,2.81163629 31.205873,2.9055932 L31.205873,2.58820988 C31.2206348,2.2455659 31.3020432,1.90920063 31.4454605,1.5982762 C31.5724969,1.2846777 31.7580464,0.998634046 31.9920196,0.755699063 L31.9920196,0.755699063 C32.2293555,0.515267333 32.5119139,0.325143028 32.8230888,0.196499884 C33.1328634,0.0669798497 33.4648539,2.43036764e-05 33.8001567,2.43036764e-05 C34.479444,2.43036764e-05 35.1310822,0.271536203 35.6120374,0.755699063 C35.850036,0.99764705 36.0394417,1.28375651 36.1698271,1.5982762 C36.2995952,1.91181253 36.365787,2.2484191 36.364492,2.58820988 L36.364492,2.91314995 C36.5227678,2.82445807 36.6895958,2.75229538 36.8623849,2.6977827 C37.4315804,2.51680577 38.0460216,2.54627322 38.5956509,2.7809069 C39.555058,3.18106931 40.1814094,4.12486162 40.1829183,5.1726169 L40.1829183,16.6739838 C40.1978925,16.7747404 40.2091232,16.8767565 40.2166103,16.980032 C40.2222082,17.085751 40.2222082,17.1916963 40.2166103,17.2974153 L40.2166103,17.7092579 C40.4861463,17.4523286 40.7369645,17.1991776 40.9054245,17.0291508 L41.0589102,16.8780159 C41.4911124,16.417874 42.0283511,16.0715179 42.6237163,15.8691904 C43.1507672,15.6884918 43.7211359,15.6818749 44.2521628,15.8502985 C44.4586293,15.9142753 44.6552028,16.0071172 44.8361574,16.1261197 C45.0184897,16.2417601 45.1836098,16.3829723 45.3265631,16.5455191 C45.47432,16.7082439 45.6001885,16.8899099 45.7009186,17.0858264 C45.8011566,17.2794408 45.8766313,17.4851178 45.925532,17.6979228 C46.0621892,18.3048344 46.0098945,18.9395279 45.7757897,19.5153202 C45.5109461,20.1555089 45.1020935,20.7246886 44.5815956,21.1778042 L44.5553908,21.2042528 C44.2746241,21.4876308 43.9002686,21.895695 43.4585291,22.37177 C41.6129564,24.3705292 38.6330865,27.5897029 36.7201298,28.3642693 C35.1702979,28.9877008 32.7968839,29.1577276 30.5769557,28.8516794 C28.5928714,28.5796366 26.7210939,27.9259781 25.6541806,26.8680337 L26.6087872,25.9121054 C27.477292,26.7622392 29.0945078,27.2912114 30.8240303,27.5141354 C32.8081146,27.7672864 34.941941,27.6199299 36.2184934,27.1022928 C37.9143239,26.4221857 41.0551667,22.9989799 42.7322794,21.1815826 C43.1066349,20.7697399 43.4098629,20.4447999 43.6082713,20.2407677 L43.6719117,20.1765354 L43.6906295,20.1765354 C44.0315204,19.8831363 44.3049129,19.5182312 44.4917503,19.1072559 C44.6482341,18.7715289 44.6916192,18.3933549 44.6152876,18.0304196 C44.5898729,17.9272616 44.5534733,17.8271819 44.5067245,17.7319282 C44.4594196,17.6398166 44.4016277,17.5535905 44.334521,17.4749988 L44.334521,17.4749988 C44.2702065,17.4042532 44.197247,17.3420416 44.1173948,17.2898586 C44.0363231,17.2350619 43.94814,17.1918318 43.8553459,17.1613939 L43.8553459,17.1613939 C43.5667228,17.0780111 43.2589544,17.0926134 42.979354,17.202956 C42.6259215,17.3479027 42.3069474,17.5668225 42.0434652,17.8452794 C41.8862359,18.0077494 41.4557271,18.4384839 41.0289618,18.8427698 C40.8155791,19.0468019 40.5984529,19.2470557 40.3963009,19.4095257 C40.2528684,19.5333187 40.1001764,19.6457448 39.9395872,19.7458009 C39.8859477,19.7832294 39.826476,19.8113261 39.7636401,19.8289251 C39.7018301,19.8484715 39.6374898,19.8586579 39.5727188,19.8591521 C39.550136,19.8592386 39.5280188,19.8526731 39.5090784,19.8402602 L39.0785695,19.6286713 C39.0394242,19.6095346 39.0136316,19.5704858 39.0111855,19.5266553 L38.8801611,17.3087504 C38.8801611,15.1248509 38.8801611,13.1865457 38.8801611,11.2633539 C38.8801611,9.20414071 38.8801611,7.13737077 38.8801611,5.19528714 C38.8814498,5.03463156 38.8509028,4.87533715 38.7903158,4.72676891 C38.7269844,4.57896566 38.6368391,4.44441218 38.5245234,4.33003976 C38.4174423,4.21779487 38.2904647,4.1268023 38.1501678,4.06177529 C38.0024538,4.0023789 37.8449713,3.97161493 37.685967,3.97109434 C37.3650067,3.97452552 37.057807,4.10315172 36.8286929,4.33003976 C36.5953397,4.55706361 36.4607136,4.86822489 36.4543373,5.19528714 L36.4543373,14.8490297 C36.4543373,14.9158053 36.4007038,14.9699376 36.3345436,14.9699376 L35.1328624,14.9699376 C35.0667021,14.9699376 35.0130686,14.9158053 35.0130686,14.8490297 L35.0130686,2.59198826 C35.0131714,2.4310759 34.9813496,2.2717717 34.9194797,2.12347003 C34.858708,1.9807297 34.7695123,1.85212219 34.6574308,1.74563274 C34.5444057,1.63015458 34.4094345,1.53890852 34.260614,1.47736827 C34.1148454,1.4158176 33.9581585,1.3849602 33.8001567,1.38668733 C33.6409816,1.38538659 33.4831551,1.41621777 33.3359559,1.47736827 C33.1961747,1.54329262 33.0693508,1.63417509 32.9616003,1.74563274 C32.8503898,1.85370977 32.7602357,1.98186831 32.6958079,2.12347003 C32.6352209,2.27203827 32.6046739,2.43133268 32.6059626,2.59198826 L32.6059626,14.8490297 C32.6059626,14.9158053 32.5523291,14.9699376 32.4861688,14.9699376 L32.1941715,14.9699376 C31.998401,14.5120152 31.7468957,14.0804795 31.4454605,13.6852909 C31.3556152,13.5606046 31.2582827,13.4396966 31.1572067,13.3074536 L31.1572067,5.14994666 C31.1578832,4.98970493 31.1286743,4.83076605 31.071105,4.68142843 C31.0077736,4.53362519 30.9176283,4.39907171 30.8053126,4.28469928 C30.5773138,4.05611574 30.2694001,3.9271906 29.9480384,3.92575387 C29.7886883,3.92644572 29.6310049,3.9585324 29.4838376,4.02021319 C29.0304547,4.21087973 28.7351265,4.65799203 28.7351265,5.15372504 L28.7351265,11.5769588 C28.3003338,11.3996125 27.8469347,11.272849 27.3837031,11.1991216 L27.3837031,7.88171022 C27.3838137,7.7220185 27.3519816,7.56394776 27.2901142,7.41697036 C27.2291192,7.26768904 27.1401412,7.1316978 27.0280654,7.01646284 C26.9142554,6.9028921 26.779424,6.81302432 26.6312485,6.75197674 C26.4856255,6.68953398 26.3290114,6.65740578 26.1707912,6.65751742 C26.0113617,6.65741368 25.8535255,6.68953146 25.7065904,6.75197674 C25.5651654,6.81331367 25.437743,6.90333893 25.3322349,7.01646284 C25.2178208,7.13053923 25.1274156,7.26676574 25.0664425,7.41697036 C25.0058585,7.56421675 24.9753016,7.72227747 24.9765971,7.88171022 L24.9765971,11.3086944 C24.5037425,11.4219006 24.048873,11.6012167 23.6251737,11.8414449 L23.6251737,7.88171022 C23.6276906,6.83426524 24.2537019,5.89098526 25.2124411,5.49000022 C25.518293,5.36007399 25.846448,5.29203532 26.1782784,5.28974646 Z M22.9251289,15.4913531 C23.8872226,14.4787492 24.5610625,13.6021667 26.0397668,13.4359183 C28.8174848,13.1147566 31.3743329,15.9825416 29.9704998,18.8087644 C29.3935938,19.8032952 28.683062,20.7124358 27.8591346,21.510301 C26.8708361,22.5417968 25.7814615,23.5544007 25.0140327,24.3214104 L22.9288725,26.4108506 L21.2030935,24.733253 C19.1291639,22.7080452 15.7449901,20.1689787 15.6326834,17.0253725 C15.5578123,14.8225811 17.2798477,13.4094697 19.2601884,13.4359183 C21.03089,13.4585885 21.7758575,14.3465061 22.9251289,15.480018 L22.9251289,15.4913531 Z M19.0917284,5.39931927 C19.3347337,5.32643504 19.5869317,5.28952622 19.8404394,5.28974646 C20.1770601,5.28884595 20.5104859,5.35563756 20.8212509,5.48622184 C21.780658,5.88638425 22.4070093,6.83017657 22.4085183,7.87793185 L22.4085183,11.9963582 C21.9888557,11.7284017 21.5321755,11.5246768 21.0533513,11.3918186 L21.0533513,7.87793185 C21.0546469,7.7184991 21.0240899,7.56043838 20.963506,7.41319199 C20.9025328,7.26298737 20.8121276,7.12676085 20.6977136,7.01268447 C20.5922054,6.89956056 20.464783,6.8095353 20.323358,6.74819837 C19.8732143,6.5610744 19.3558373,6.66372693 19.0093702,7.00890609 L19.0093702,7.00890609 C18.7760171,7.23592994 18.6413909,7.54709123 18.6350147,7.87415347 L18.6350147,11.1877864 C18.1754618,11.2331435 17.7222556,11.3294427 17.2835912,11.4749428 L17.2835912,5.14994666 C17.2832809,4.65504771 16.9877681,4.20901867 16.5347369,4.01967142 C16.0817057,3.83032417 15.560282,3.93490942 15.2134052,4.28469928 C15.1010895,4.39907171 15.0109441,4.53362519 14.9476128,4.68142843 C14.8887637,4.83051629 14.8582833,4.98946349 14.8577675,5.14994666 L14.8577675,13.0505242 C14.3568713,13.6057609 13.9745821,14.2591246 13.7347009,14.9699376 L13.5662409,14.9699376 C13.5000807,14.9699376 13.4464472,14.9158053 13.4464472,14.8490297 L13.4464472,2.59198826 C13.4477359,2.43133268 13.4171888,2.27203827 13.3566018,2.12347003 C13.2921741,1.98186831 13.20202,1.85370977 13.0908094,1.74563274 C12.983059,1.63417509 12.8562351,1.54329262 12.7164539,1.47736827 C12.5692547,1.41621777 12.4114282,1.38538659 12.2522531,1.38668733 C12.0942513,1.3849602 11.9375644,1.4158176 11.7917958,1.47736827 C11.6429753,1.53890852 11.5080041,1.63015458 11.3949789,1.74563274 C11.2862556,1.85501208 11.1975415,1.98292518 11.1329301,2.12347003 L11.1329301,2.12347003 C11.0710602,2.2717717 11.0392384,2.4310759 11.0393412,2.59198826 L11.0393412,14.8528081 C11.0393412,14.9195837 10.9857077,14.973716 10.9195474,14.973716 L9.73284042,14.973716 C9.66668015,14.973716 9.61304666,14.9195837 9.61304666,14.8528081 L9.61304666,5.18017365 C9.61314944,5.01926128 9.58132762,4.85995709 9.51945778,4.71165541 C9.45978957,4.56924665 9.37188546,4.44066449 9.26115247,4.33381813 L9.26115247,4.33381813 C9.15446015,4.2220841 9.02733336,4.13226769 8.88679695,4.06933203 L8.88679695,4.06933203 C8.74105323,4.00728245 8.58451888,3.97517062 8.42633966,3.97487271 C8.26733534,3.9753933 8.10985283,4.00615728 7.96213882,4.06555366 C7.82184196,4.13058067 7.6948644,4.22157324 7.5877833,4.33381813 C7.4754676,4.44819056 7.38532223,4.58274404 7.32199088,4.73054728 C7.26140388,4.87911552 7.23085681,5.03840993 7.23214556,5.19906551 C7.23214556,7.14114914 7.23214556,9.20791908 7.23214556,11.2671323 C7.23214556,13.1978808 7.23214556,15.136186 7.23214556,17.3125288 L7.10112113,19.5304336 C7.09722412,19.5737615 7.07186465,19.6121545 7.03373713,19.6324497 L6.60322829,19.8440386 C6.58242926,19.850024 6.56038688,19.850024 6.53958785,19.8440386 C6.47481683,19.8435445 6.41047651,19.833358 6.34866654,19.8138116 C6.28642128,19.794632 6.22718324,19.7666457 6.17271944,19.7306874 C5.97689394,19.6391925 5.79012474,19.5291251 5.61492972,19.401969 C5.41277774,19.2394989 5.19565154,19.0241317 4.98226889,18.8389914 C4.5555036,18.4309272 4.12499476,18.0001927 3.96776544,17.8377226 C3.70533829,17.5580114 3.38607706,17.3388946 3.03187664,17.1953992 C2.75175395,17.0821154 2.44223981,17.0661634 2.15214117,17.1500588 C2.05904421,17.1797336 1.97075707,17.2230148 1.89009231,17.2785234 C1.80827857,17.3310369 1.73396649,17.3945989 1.66922255,17.4674421 L1.66922255,17.4674421 C1.60211589,17.5460338 1.54432396,17.6322599 1.49701902,17.7243714 C1.45027023,17.8196252 1.41387067,17.9197048 1.38845591,18.0228629 C1.31212438,18.3857982 1.35550943,18.7639721 1.51199324,19.0996991 C1.69883061,19.5106745 1.97222318,19.8755796 2.31311405,20.1689787 L2.31311405,20.1689787 L2.37675448,20.233211 C2.57516291,20.4334648 2.87839088,20.7621832 3.2527464,21.1702475 C4.92611556,22.9914232 8.07070192,26.4108506 9.77027597,27.0947361 C11.0618025,27.6123731 13.1806547,27.7597297 15.164739,27.5065787 C16.8231339,27.2912114 18.3767093,26.800023 19.2826497,25.9952296 L19.6382874,26.3315047 L20.2597176,26.9360444 C19.1778302,27.9410916 17.3584623,28.5683015 15.4267879,28.8252308 C13.2068596,29.131279 10.8334456,28.9612522 9.27987025,28.3378207 C7.35942644,27.5821461 4.37955651,24.3440806 2.54147091,22.3453214 C2.0997314,21.9145869 1.72537588,21.4951875 1.44460924,21.2118096 L1.41840436,21.1853609 C0.897906537,20.7322453 0.489053906,20.1630657 0.224210252,19.5228769 C-0.00989446448,18.9470847 -0.0621892481,18.3123912 0.0744680446,17.7054796 C0.123974464,17.4916505 0.199414737,17.2847983 0.299081356,17.0896048 C0.400771991,16.8954336 0.526571008,16.7151376 0.673436874,16.5530759 C0.816390183,16.390529 0.981510344,16.2493168 1.1638426,16.1336765 C1.34628144,16.0202534 1.54260342,15.9313408 1.74783721,15.8691904 C2.27505438,15.6993444 2.84157944,15.6993444 3.36879661,15.8691904 C3.95802864,16.0715415 4.48984154,16.4151192 4.91862845,16.8704592 L5.07211422,17.0215941 C5.2405742,17.1916209 5.4913924,17.4447718 5.76092837,17.7017012 L5.76092837,17.2974153 C5.75533046,17.1916963 5.75533046,17.085751 5.76092837,16.980032 C5.76092837,16.8792754 5.77215904,16.7772593 5.79462037,16.6739838 L5.79462037,5.17639527 C5.79713722,4.1289503 6.42314855,3.18567031 7.38188777,2.78468527 C7.93019371,2.54999064 8.54348955,2.52051446 9.11141026,2.70156107 C9.28566164,2.75534387 9.45380449,2.82753254 9.61304666,2.91692832 L9.61304666,2.59198826 C9.61175165,2.25219748 9.67794343,1.9155909 9.80771153,1.60205458 C9.94435167,1.28430822 10.1415008,0.996746004 10.3879626,0.755699063 C10.8668394,0.271860442 11.5166379,0 12.194228,0 C12.871818,0 13.5216165,0.271860442 14.0004933,0.755699063 L14.0004933,0.755699063 C14.2384919,0.99764705 14.4278976,1.28375651 14.5582831,1.5982762 C14.6862529,1.91236291 14.7523727,2.2486036 14.7529479,2.58820988 L14.7529479,2.9055932 C14.9140191,2.81163629 15.0847288,2.73562269 15.2620714,2.67889083 C15.5101924,2.59896971 15.7690503,2.55818681 16.0295002,2.5579829 L16.0295002,2.5579829 C16.3651954,2.55796738 16.6974677,2.62606785 17.0065681,2.75823666 C17.6399772,3.01744432 18.1451037,3.52047114 18.4104013,4.15623461 C18.5401665,4.46844786 18.6063683,4.80382079 18.6050662,5.14238992 L18.6050662,5.59201628 C18.7600789,5.51059461 18.9232125,5.4460008 19.0917284,5.39931927 Z" id="Shape"></path>
            </g>
        </g>
    </g>
</svg>